<mxfile host="Electron" modified="2024-03-17T16:50:33.238Z" agent="Mozilla/5.0 (Windows NT 10.0; Win64; x64) AppleWebKit/537.36 (KHTML, like Gecko) draw.io/24.0.4 Chrome/120.0.6099.109 Electron/28.1.0 Safari/537.36" etag="GlHHfoTvesUPpJAurto3" version="24.0.4" type="device">
  <diagram name="Page-1" id="qsMjnIcyi-WN0eaT_Iao">
    <mxGraphModel dx="893" dy="751" grid="1" gridSize="10" guides="1" tooltips="1" connect="1" arrows="1" fold="1" page="1" pageScale="1" pageWidth="827" pageHeight="1169" math="0" shadow="0">
      <root>
        <mxCell id="0" />
        <mxCell id="1" parent="0" />
        <mxCell id="lT9Hb-5_YNJ0qb3hjdj5-1" value="&lt;b&gt;Tester&lt;/b&gt;" style="shape=umlActor;verticalLabelPosition=bottom;verticalAlign=top;html=1;strokeColor=#000000;" parent="1" vertex="1">
          <mxGeometry x="340" y="345" width="30" height="60" as="geometry" />
        </mxCell>
        <mxCell id="lT9Hb-5_YNJ0qb3hjdj5-2" value="&lt;b&gt;Move&lt;/b&gt;" style="ellipse;whiteSpace=wrap;html=1;fillColor=#FFCCCC;" parent="1" vertex="1">
          <mxGeometry x="319" y="280" width="105" height="30" as="geometry" />
        </mxCell>
        <mxCell id="lT9Hb-5_YNJ0qb3hjdj5-3" value="Transistor Jump" style="ellipse;whiteSpace=wrap;html=1;fillColor=#FFCCCC;" parent="1" vertex="1">
          <mxGeometry x="426.5" y="155" width="80" height="35" as="geometry" />
        </mxCell>
        <mxCell id="lT9Hb-5_YNJ0qb3hjdj5-4" value="Simple Move" style="ellipse;whiteSpace=wrap;html=1;fillColor=#FFCCCC;" parent="1" vertex="1">
          <mxGeometry x="340" y="167.5" width="80" height="30" as="geometry" />
        </mxCell>
        <mxCell id="lT9Hb-5_YNJ0qb3hjdj5-5" value="" style="endArrow=block;endSize=16;endFill=0;html=1;rounded=0;strokeColor=#CC0000;" parent="1" source="lT9Hb-5_YNJ0qb3hjdj5-3" target="MtzeGrgQ0cjP38RyA9aJ-1" edge="1">
          <mxGeometry width="160" relative="1" as="geometry">
            <mxPoint x="260" y="305" as="sourcePoint" />
            <mxPoint x="420" y="305" as="targetPoint" />
          </mxGeometry>
        </mxCell>
        <mxCell id="lT9Hb-5_YNJ0qb3hjdj5-6" value="" style="endArrow=block;endSize=16;endFill=0;html=1;rounded=0;strokeColor=#CC0000;" parent="1" source="lT9Hb-5_YNJ0qb3hjdj5-4" target="MtzeGrgQ0cjP38RyA9aJ-1" edge="1">
          <mxGeometry width="160" relative="1" as="geometry">
            <mxPoint x="390" y="169" as="sourcePoint" />
            <mxPoint x="494" y="251" as="targetPoint" />
          </mxGeometry>
        </mxCell>
        <mxCell id="lT9Hb-5_YNJ0qb3hjdj5-7" value="&lt;b&gt;Use Item&lt;/b&gt;" style="ellipse;whiteSpace=wrap;html=1;fillColor=#D4E1F5;" parent="1" vertex="1">
          <mxGeometry x="430" y="265" width="94" height="50" as="geometry" />
        </mxCell>
        <mxCell id="lT9Hb-5_YNJ0qb3hjdj5-9" value="Use Dice" style="ellipse;whiteSpace=wrap;html=1;fillColor=#D4E1F5;" parent="1" vertex="1">
          <mxGeometry x="450" y="210" width="90" height="20" as="geometry" />
        </mxCell>
        <mxCell id="lT9Hb-5_YNJ0qb3hjdj5-12" value="" style="endArrow=none;html=1;rounded=0;strokeColor=#3399FF;" parent="1" source="lT9Hb-5_YNJ0qb3hjdj5-1" target="lT9Hb-5_YNJ0qb3hjdj5-2" edge="1">
          <mxGeometry width="50" height="50" relative="1" as="geometry">
            <mxPoint x="540" y="355" as="sourcePoint" />
            <mxPoint x="590" y="305" as="targetPoint" />
          </mxGeometry>
        </mxCell>
        <mxCell id="lT9Hb-5_YNJ0qb3hjdj5-14" value="Use FFP2" style="ellipse;whiteSpace=wrap;html=1;fillColor=#D4E1F5;" parent="1" vertex="1">
          <mxGeometry x="555" y="207.5" width="81" height="25" as="geometry" />
        </mxCell>
        <mxCell id="lT9Hb-5_YNJ0qb3hjdj5-16" value="" style="endArrow=none;html=1;rounded=0;strokeColor=#3399FF;" parent="1" source="lT9Hb-5_YNJ0qb3hjdj5-1" target="lT9Hb-5_YNJ0qb3hjdj5-7" edge="1">
          <mxGeometry width="50" height="50" relative="1" as="geometry">
            <mxPoint x="430" y="435" as="sourcePoint" />
            <mxPoint x="480" y="385" as="targetPoint" />
          </mxGeometry>
        </mxCell>
        <mxCell id="lT9Hb-5_YNJ0qb3hjdj5-18" value="Use Transistor" style="ellipse;whiteSpace=wrap;html=1;fillColor=#D4E1F5;" parent="1" vertex="1">
          <mxGeometry x="565" y="240" width="90" height="30" as="geometry" />
        </mxCell>
        <mxCell id="lT9Hb-5_YNJ0qb3hjdj5-19" value="Use Camambert" style="ellipse;whiteSpace=wrap;html=1;fillColor=#D4E1F5;" parent="1" vertex="1">
          <mxGeometry x="560.5" y="280" width="110" height="30" as="geometry" />
        </mxCell>
        <mxCell id="lT9Hb-5_YNJ0qb3hjdj5-20" value="Use GlassOfBeer" style="ellipse;whiteSpace=wrap;html=1;fillColor=#D4E1F5;" parent="1" vertex="1">
          <mxGeometry x="560" y="330" width="120" height="30" as="geometry" />
        </mxCell>
        <mxCell id="lT9Hb-5_YNJ0qb3hjdj5-21" value="Use WetRag" style="ellipse;whiteSpace=wrap;html=1;fillColor=#D4E1F5;" parent="1" vertex="1">
          <mxGeometry x="475" y="345" width="80" height="20" as="geometry" />
        </mxCell>
        <mxCell id="lT9Hb-5_YNJ0qb3hjdj5-22" value="" style="endArrow=block;endSize=16;endFill=0;html=1;rounded=0;strokeColor=#CC0000;" parent="1" source="lT9Hb-5_YNJ0qb3hjdj5-9" target="lT9Hb-5_YNJ0qb3hjdj5-7" edge="1">
          <mxGeometry width="160" relative="1" as="geometry">
            <mxPoint x="612" y="263" as="sourcePoint" />
            <mxPoint x="516" y="318" as="targetPoint" />
          </mxGeometry>
        </mxCell>
        <mxCell id="lT9Hb-5_YNJ0qb3hjdj5-23" value="" style="endArrow=block;endSize=16;endFill=0;html=1;rounded=0;strokeColor=#CC0000;" parent="1" source="lT9Hb-5_YNJ0qb3hjdj5-14" target="lT9Hb-5_YNJ0qb3hjdj5-7" edge="1">
          <mxGeometry width="160" relative="1" as="geometry">
            <mxPoint x="622" y="273" as="sourcePoint" />
            <mxPoint x="526" y="328" as="targetPoint" />
          </mxGeometry>
        </mxCell>
        <mxCell id="lT9Hb-5_YNJ0qb3hjdj5-25" value="" style="endArrow=block;endSize=16;endFill=0;html=1;rounded=0;strokeColor=#CC0000;" parent="1" source="lT9Hb-5_YNJ0qb3hjdj5-18" target="lT9Hb-5_YNJ0qb3hjdj5-7" edge="1">
          <mxGeometry width="160" relative="1" as="geometry">
            <mxPoint x="642" y="293" as="sourcePoint" />
            <mxPoint x="546" y="348" as="targetPoint" />
          </mxGeometry>
        </mxCell>
        <mxCell id="lT9Hb-5_YNJ0qb3hjdj5-26" value="" style="endArrow=block;endSize=16;endFill=0;html=1;rounded=0;strokeColor=#CC0000;" parent="1" source="lT9Hb-5_YNJ0qb3hjdj5-19" target="lT9Hb-5_YNJ0qb3hjdj5-7" edge="1">
          <mxGeometry width="160" relative="1" as="geometry">
            <mxPoint x="652" y="303" as="sourcePoint" />
            <mxPoint x="556" y="358" as="targetPoint" />
          </mxGeometry>
        </mxCell>
        <mxCell id="lT9Hb-5_YNJ0qb3hjdj5-27" value="" style="endArrow=block;endSize=16;endFill=0;html=1;rounded=0;strokeColor=#CC0000;" parent="1" source="lT9Hb-5_YNJ0qb3hjdj5-20" target="lT9Hb-5_YNJ0qb3hjdj5-7" edge="1">
          <mxGeometry width="160" relative="1" as="geometry">
            <mxPoint x="662" y="313" as="sourcePoint" />
            <mxPoint x="566" y="368" as="targetPoint" />
          </mxGeometry>
        </mxCell>
        <mxCell id="lT9Hb-5_YNJ0qb3hjdj5-28" value="" style="endArrow=block;endSize=16;endFill=0;html=1;rounded=0;strokeColor=#CC0000;" parent="1" source="lT9Hb-5_YNJ0qb3hjdj5-21" target="lT9Hb-5_YNJ0qb3hjdj5-7" edge="1">
          <mxGeometry width="160" relative="1" as="geometry">
            <mxPoint x="672" y="323" as="sourcePoint" />
            <mxPoint x="576" y="378" as="targetPoint" />
          </mxGeometry>
        </mxCell>
        <mxCell id="lT9Hb-5_YNJ0qb3hjdj5-29" value="&lt;b&gt;Pick Up Item&lt;/b&gt;" style="ellipse;whiteSpace=wrap;html=1;fillColor=#D5E8D4;" parent="1" vertex="1">
          <mxGeometry x="450" y="455" width="140" height="37.5" as="geometry" />
        </mxCell>
        <mxCell id="lT9Hb-5_YNJ0qb3hjdj5-30" value="" style="endArrow=none;html=1;rounded=0;strokeColor=#3399FF;fillColor=#D5E8D4;" parent="1" source="lT9Hb-5_YNJ0qb3hjdj5-1" target="lT9Hb-5_YNJ0qb3hjdj5-29" edge="1">
          <mxGeometry width="50" height="50" relative="1" as="geometry">
            <mxPoint x="310" y="525" as="sourcePoint" />
            <mxPoint x="360" y="475" as="targetPoint" />
          </mxGeometry>
        </mxCell>
        <mxCell id="lT9Hb-5_YNJ0qb3hjdj5-38" value="Pick Up Dice" style="ellipse;whiteSpace=wrap;html=1;fillColor=#D5E8D4;" parent="1" vertex="1">
          <mxGeometry x="434" y="390" width="90" height="30" as="geometry" />
        </mxCell>
        <mxCell id="lT9Hb-5_YNJ0qb3hjdj5-39" value="Pick Up&amp;nbsp;FFP2" style="ellipse;whiteSpace=wrap;html=1;fillColor=#D5E8D4;" parent="1" vertex="1">
          <mxGeometry x="530" y="405" width="85.5" height="25" as="geometry" />
        </mxCell>
        <mxCell id="lT9Hb-5_YNJ0qb3hjdj5-40" value="Pick Up TVSZ" style="ellipse;whiteSpace=wrap;html=1;fillColor=#D5E8D4;" parent="1" vertex="1">
          <mxGeometry x="600.5" y="430" width="80" height="30" as="geometry" />
        </mxCell>
        <mxCell id="lT9Hb-5_YNJ0qb3hjdj5-41" value="Pick Up&amp;nbsp;Transistor" style="ellipse;whiteSpace=wrap;html=1;fillColor=#D5E8D4;" parent="1" vertex="1">
          <mxGeometry x="615.5" y="470" width="109" height="30" as="geometry" />
        </mxCell>
        <mxCell id="lT9Hb-5_YNJ0qb3hjdj5-42" value="Pick Up Camambert" style="ellipse;whiteSpace=wrap;html=1;fillColor=#D5E8D4;" parent="1" vertex="1">
          <mxGeometry x="569.5" y="515" width="101" height="30" as="geometry" />
        </mxCell>
        <mxCell id="lT9Hb-5_YNJ0qb3hjdj5-43" value="Pick Up&amp;nbsp;GlassOfBeer" style="ellipse;whiteSpace=wrap;html=1;fillColor=#D5E8D4;" parent="1" vertex="1">
          <mxGeometry x="506.5" y="550" width="120" height="30" as="geometry" />
        </mxCell>
        <mxCell id="lT9Hb-5_YNJ0qb3hjdj5-44" value="Pick Up&amp;nbsp;WetRag" style="ellipse;whiteSpace=wrap;html=1;fillColor=#D5E8D4;" parent="1" vertex="1">
          <mxGeometry x="424" y="520" width="100" height="30" as="geometry" />
        </mxCell>
        <mxCell id="lT9Hb-5_YNJ0qb3hjdj5-45" value="" style="endArrow=block;endSize=16;endFill=0;html=1;rounded=0;strokeColor=#CC0000;" parent="1" source="lT9Hb-5_YNJ0qb3hjdj5-38" target="lT9Hb-5_YNJ0qb3hjdj5-29" edge="1">
          <mxGeometry width="160" relative="1" as="geometry">
            <mxPoint x="520" y="455" as="sourcePoint" />
            <mxPoint x="421" y="421.5" as="targetPoint" />
          </mxGeometry>
        </mxCell>
        <mxCell id="lT9Hb-5_YNJ0qb3hjdj5-46" value="" style="endArrow=block;endSize=16;endFill=0;html=1;rounded=0;strokeColor=#CC0000;" parent="1" source="lT9Hb-5_YNJ0qb3hjdj5-39" target="lT9Hb-5_YNJ0qb3hjdj5-29" edge="1">
          <mxGeometry width="160" relative="1" as="geometry">
            <mxPoint x="479" y="498.5" as="sourcePoint" />
            <mxPoint x="421" y="421.5" as="targetPoint" />
          </mxGeometry>
        </mxCell>
        <mxCell id="lT9Hb-5_YNJ0qb3hjdj5-47" value="" style="endArrow=block;endSize=16;endFill=0;html=1;rounded=0;strokeColor=#CC0000;" parent="1" source="lT9Hb-5_YNJ0qb3hjdj5-40" target="lT9Hb-5_YNJ0qb3hjdj5-29" edge="1">
          <mxGeometry width="160" relative="1" as="geometry">
            <mxPoint x="602" y="460" as="sourcePoint" />
            <mxPoint x="544" y="383" as="targetPoint" />
          </mxGeometry>
        </mxCell>
        <mxCell id="lT9Hb-5_YNJ0qb3hjdj5-48" value="" style="endArrow=block;endSize=16;endFill=0;html=1;rounded=0;strokeColor=#CC0000;" parent="1" source="lT9Hb-5_YNJ0qb3hjdj5-41" target="lT9Hb-5_YNJ0qb3hjdj5-29" edge="1">
          <mxGeometry width="160" relative="1" as="geometry">
            <mxPoint x="612" y="470" as="sourcePoint" />
            <mxPoint x="554" y="393" as="targetPoint" />
          </mxGeometry>
        </mxCell>
        <mxCell id="lT9Hb-5_YNJ0qb3hjdj5-49" value="" style="endArrow=block;endSize=16;endFill=0;html=1;rounded=0;strokeColor=#CC0000;" parent="1" source="lT9Hb-5_YNJ0qb3hjdj5-42" target="lT9Hb-5_YNJ0qb3hjdj5-29" edge="1">
          <mxGeometry width="160" relative="1" as="geometry">
            <mxPoint x="622" y="480" as="sourcePoint" />
            <mxPoint x="564" y="403" as="targetPoint" />
          </mxGeometry>
        </mxCell>
        <mxCell id="lT9Hb-5_YNJ0qb3hjdj5-50" value="" style="endArrow=block;endSize=16;endFill=0;html=1;rounded=0;strokeColor=#CC0000;" parent="1" source="lT9Hb-5_YNJ0qb3hjdj5-43" target="lT9Hb-5_YNJ0qb3hjdj5-29" edge="1">
          <mxGeometry width="160" relative="1" as="geometry">
            <mxPoint x="632" y="490" as="sourcePoint" />
            <mxPoint x="574" y="413" as="targetPoint" />
          </mxGeometry>
        </mxCell>
        <mxCell id="lT9Hb-5_YNJ0qb3hjdj5-51" value="" style="endArrow=block;endSize=16;endFill=0;html=1;rounded=0;strokeColor=#CC0000;" parent="1" source="lT9Hb-5_YNJ0qb3hjdj5-44" target="lT9Hb-5_YNJ0qb3hjdj5-29" edge="1">
          <mxGeometry width="160" relative="1" as="geometry">
            <mxPoint x="642" y="500" as="sourcePoint" />
            <mxPoint x="584" y="423" as="targetPoint" />
          </mxGeometry>
        </mxCell>
        <mxCell id="lT9Hb-5_YNJ0qb3hjdj5-55" value="&lt;b&gt;Idle Action&lt;/b&gt;" style="ellipse;whiteSpace=wrap;html=1;fillColor=default;" parent="1" vertex="1">
          <mxGeometry x="150" y="405" width="95" height="20" as="geometry" />
        </mxCell>
        <mxCell id="lT9Hb-5_YNJ0qb3hjdj5-56" value="" style="endArrow=none;html=1;rounded=0;strokeColor=#3399FF;" parent="1" source="lT9Hb-5_YNJ0qb3hjdj5-55" target="lT9Hb-5_YNJ0qb3hjdj5-1" edge="1">
          <mxGeometry width="50" height="50" relative="1" as="geometry">
            <mxPoint x="200" y="375" as="sourcePoint" />
            <mxPoint x="250" y="325" as="targetPoint" />
          </mxGeometry>
        </mxCell>
        <mxCell id="lT9Hb-5_YNJ0qb3hjdj5-63" value="Pair Last Two Transistor" style="ellipse;whiteSpace=wrap;html=1;fillColor=#D5E8D4;" parent="1" vertex="1">
          <mxGeometry x="700" y="530" width="100" height="35" as="geometry" />
        </mxCell>
        <mxCell id="lT9Hb-5_YNJ0qb3hjdj5-64" value="&amp;lt;&amp;lt;include&amp;gt;&amp;gt;" style="endArrow=open;endSize=12;dashed=1;html=1;rounded=0;strokeColor=#3399FF;" parent="1" source="lT9Hb-5_YNJ0qb3hjdj5-41" target="lT9Hb-5_YNJ0qb3hjdj5-63" edge="1">
          <mxGeometry x="0.2094" y="11" width="160" relative="1" as="geometry">
            <mxPoint x="760" y="470" as="sourcePoint" />
            <mxPoint x="770" y="635" as="targetPoint" />
            <mxPoint as="offset" />
          </mxGeometry>
        </mxCell>
        <mxCell id="lT9Hb-5_YNJ0qb3hjdj5-65" value="&lt;b&gt;Drop Item&lt;/b&gt;" style="ellipse;whiteSpace=wrap;html=1;fillColor=#FFFFCC;" parent="1" vertex="1">
          <mxGeometry x="205" y="487.5" width="135" height="26.25" as="geometry" />
        </mxCell>
        <mxCell id="lT9Hb-5_YNJ0qb3hjdj5-66" value="" style="endArrow=none;html=1;rounded=0;strokeColor=#3399FF;" parent="1" source="lT9Hb-5_YNJ0qb3hjdj5-65" target="lT9Hb-5_YNJ0qb3hjdj5-1" edge="1">
          <mxGeometry width="50" height="50" relative="1" as="geometry">
            <mxPoint x="200" y="415" as="sourcePoint" />
            <mxPoint x="250" y="365" as="targetPoint" />
          </mxGeometry>
        </mxCell>
        <mxCell id="lT9Hb-5_YNJ0qb3hjdj5-67" value="Pick Up SlideRule" style="ellipse;whiteSpace=wrap;html=1;fillColor=#D5E8D4;" parent="1" vertex="1">
          <mxGeometry x="350" y="487.5" width="100" height="30" as="geometry" />
        </mxCell>
        <mxCell id="lT9Hb-5_YNJ0qb3hjdj5-68" value="" style="endArrow=block;endSize=16;endFill=0;html=1;rounded=0;strokeColor=#CC0000;" parent="1" source="lT9Hb-5_YNJ0qb3hjdj5-67" target="lT9Hb-5_YNJ0qb3hjdj5-29" edge="1">
          <mxGeometry width="160" relative="1" as="geometry">
            <mxPoint x="489" y="545" as="sourcePoint" />
            <mxPoint x="486" y="509" as="targetPoint" />
          </mxGeometry>
        </mxCell>
        <mxCell id="lT9Hb-5_YNJ0qb3hjdj5-70" value="Drop Dice" style="ellipse;whiteSpace=wrap;html=1;fillColor=#FFFFCC;" parent="1" vertex="1">
          <mxGeometry x="314.5" y="450" width="90" height="30" as="geometry" />
        </mxCell>
        <mxCell id="lT9Hb-5_YNJ0qb3hjdj5-71" value="Drop&amp;nbsp;FFP2" style="ellipse;whiteSpace=wrap;html=1;fillColor=#FFFFCC;" parent="1" vertex="1">
          <mxGeometry x="319" y="535" width="81" height="25" as="geometry" />
        </mxCell>
        <mxCell id="lT9Hb-5_YNJ0qb3hjdj5-72" value="Drop&amp;nbsp;TVSZ" style="ellipse;whiteSpace=wrap;html=1;fillColor=#FFFFCC;" parent="1" vertex="1">
          <mxGeometry x="260" y="560" width="80" height="30" as="geometry" />
        </mxCell>
        <mxCell id="lT9Hb-5_YNJ0qb3hjdj5-73" value="Drop&amp;nbsp;Transistor" style="ellipse;whiteSpace=wrap;html=1;fillColor=#FFFFCC;" parent="1" vertex="1">
          <mxGeometry x="190" y="590" width="90" height="30" as="geometry" />
        </mxCell>
        <mxCell id="lT9Hb-5_YNJ0qb3hjdj5-74" value="Drop&amp;nbsp;Camambert" style="ellipse;whiteSpace=wrap;html=1;fillColor=#FFFFCC;" parent="1" vertex="1">
          <mxGeometry x="90" y="517.5" width="110" height="30" as="geometry" />
        </mxCell>
        <mxCell id="lT9Hb-5_YNJ0qb3hjdj5-75" value="Drop&amp;nbsp;GlassOfBeer" style="ellipse;whiteSpace=wrap;html=1;fillColor=#FFFFCC;" parent="1" vertex="1">
          <mxGeometry x="70" y="470" width="120" height="30" as="geometry" />
        </mxCell>
        <mxCell id="lT9Hb-5_YNJ0qb3hjdj5-76" value="Drop&amp;nbsp;WetRag" style="ellipse;whiteSpace=wrap;html=1;fillColor=#FFFFCC;" parent="1" vertex="1">
          <mxGeometry x="150" y="555" width="90" height="30" as="geometry" />
        </mxCell>
        <mxCell id="lT9Hb-5_YNJ0qb3hjdj5-80" value="" style="endArrow=block;endSize=16;endFill=0;html=1;rounded=0;strokeColor=#CC0000;" parent="1" source="lT9Hb-5_YNJ0qb3hjdj5-75" target="lT9Hb-5_YNJ0qb3hjdj5-65" edge="1">
          <mxGeometry width="160" relative="1" as="geometry">
            <mxPoint x="514" y="580" as="sourcePoint" />
            <mxPoint x="514" y="539" as="targetPoint" />
          </mxGeometry>
        </mxCell>
        <mxCell id="lT9Hb-5_YNJ0qb3hjdj5-81" value="" style="endArrow=block;endSize=16;endFill=0;html=1;rounded=0;strokeColor=#CC0000;" parent="1" source="lT9Hb-5_YNJ0qb3hjdj5-70" target="lT9Hb-5_YNJ0qb3hjdj5-65" edge="1">
          <mxGeometry width="160" relative="1" as="geometry">
            <mxPoint x="524" y="590" as="sourcePoint" />
            <mxPoint x="524" y="549" as="targetPoint" />
          </mxGeometry>
        </mxCell>
        <mxCell id="lT9Hb-5_YNJ0qb3hjdj5-82" value="" style="endArrow=block;endSize=16;endFill=0;html=1;rounded=0;strokeColor=#CC0000;" parent="1" source="lT9Hb-5_YNJ0qb3hjdj5-71" target="lT9Hb-5_YNJ0qb3hjdj5-65" edge="1">
          <mxGeometry width="160" relative="1" as="geometry">
            <mxPoint x="534" y="600" as="sourcePoint" />
            <mxPoint x="534" y="559" as="targetPoint" />
          </mxGeometry>
        </mxCell>
        <mxCell id="lT9Hb-5_YNJ0qb3hjdj5-83" value="" style="endArrow=block;endSize=16;endFill=0;html=1;rounded=0;strokeColor=#CC0000;" parent="1" source="lT9Hb-5_YNJ0qb3hjdj5-72" target="lT9Hb-5_YNJ0qb3hjdj5-65" edge="1">
          <mxGeometry width="160" relative="1" as="geometry">
            <mxPoint x="544" y="610" as="sourcePoint" />
            <mxPoint x="544" y="569" as="targetPoint" />
          </mxGeometry>
        </mxCell>
        <mxCell id="lT9Hb-5_YNJ0qb3hjdj5-85" value="" style="endArrow=block;endSize=16;endFill=0;html=1;rounded=0;strokeColor=#CC0000;" parent="1" source="lT9Hb-5_YNJ0qb3hjdj5-73" target="lT9Hb-5_YNJ0qb3hjdj5-65" edge="1">
          <mxGeometry width="160" relative="1" as="geometry">
            <mxPoint x="564" y="630" as="sourcePoint" />
            <mxPoint x="564" y="589" as="targetPoint" />
          </mxGeometry>
        </mxCell>
        <mxCell id="lT9Hb-5_YNJ0qb3hjdj5-86" value="" style="endArrow=block;endSize=16;endFill=0;html=1;rounded=0;strokeColor=#CC0000;" parent="1" source="lT9Hb-5_YNJ0qb3hjdj5-76" target="lT9Hb-5_YNJ0qb3hjdj5-65" edge="1">
          <mxGeometry width="160" relative="1" as="geometry">
            <mxPoint x="574" y="640" as="sourcePoint" />
            <mxPoint x="574" y="599" as="targetPoint" />
          </mxGeometry>
        </mxCell>
        <mxCell id="lT9Hb-5_YNJ0qb3hjdj5-87" value="" style="endArrow=block;endSize=16;endFill=0;html=1;rounded=0;strokeColor=#CC0000;" parent="1" source="lT9Hb-5_YNJ0qb3hjdj5-74" target="lT9Hb-5_YNJ0qb3hjdj5-65" edge="1">
          <mxGeometry width="160" relative="1" as="geometry">
            <mxPoint x="584" y="650" as="sourcePoint" />
            <mxPoint x="584" y="609" as="targetPoint" />
          </mxGeometry>
        </mxCell>
        <mxCell id="8VuKFUdI4f5eGSDuHEeQ-1" value="&lt;b&gt;Merge rooms&lt;/b&gt;" style="ellipse;whiteSpace=wrap;html=1;fillColor=#FFFFFF;" parent="1" vertex="1">
          <mxGeometry x="165" y="432.5" width="85" height="22.5" as="geometry" />
        </mxCell>
        <mxCell id="8VuKFUdI4f5eGSDuHEeQ-2" value="&lt;b&gt;Split Room&lt;/b&gt;" style="ellipse;whiteSpace=wrap;html=1;" parent="1" vertex="1">
          <mxGeometry x="198" y="460" width="87" height="20" as="geometry" />
        </mxCell>
        <mxCell id="8VuKFUdI4f5eGSDuHEeQ-3" value="" style="endArrow=none;html=1;rounded=0;strokeColor=#3399FF;" parent="1" source="8VuKFUdI4f5eGSDuHEeQ-1" target="lT9Hb-5_YNJ0qb3hjdj5-1" edge="1">
          <mxGeometry width="50" height="50" relative="1" as="geometry">
            <mxPoint x="260" y="395" as="sourcePoint" />
            <mxPoint x="320" y="355" as="targetPoint" />
          </mxGeometry>
        </mxCell>
        <mxCell id="8VuKFUdI4f5eGSDuHEeQ-4" value="" style="endArrow=none;html=1;rounded=0;strokeColor=#3399FF;" parent="1" source="8VuKFUdI4f5eGSDuHEeQ-2" target="lT9Hb-5_YNJ0qb3hjdj5-1" edge="1">
          <mxGeometry width="50" height="50" relative="1" as="geometry">
            <mxPoint x="100" y="295" as="sourcePoint" />
            <mxPoint x="150" y="245" as="targetPoint" />
          </mxGeometry>
        </mxCell>
        <mxCell id="8VuKFUdI4f5eGSDuHEeQ-7" value="&lt;b&gt;Character Goes To Character&lt;/b&gt;" style="ellipse;whiteSpace=wrap;html=1;fillColor=#FFE6CC;" parent="1" vertex="1">
          <mxGeometry x="190" y="257.5" width="135" height="40" as="geometry" />
        </mxCell>
        <mxCell id="8VuKFUdI4f5eGSDuHEeQ-8" value="" style="endArrow=none;html=1;rounded=0;strokeColor=#3399FF;" parent="1" source="8VuKFUdI4f5eGSDuHEeQ-7" target="lT9Hb-5_YNJ0qb3hjdj5-1" edge="1">
          <mxGeometry width="50" height="50" relative="1" as="geometry">
            <mxPoint x="200" y="275" as="sourcePoint" />
            <mxPoint x="250" y="225" as="targetPoint" />
          </mxGeometry>
        </mxCell>
        <mxCell id="8VuKFUdI4f5eGSDuHEeQ-10" value="Instructor goes to Student" style="ellipse;whiteSpace=wrap;html=1;fillColor=#FFE6CC;" parent="1" vertex="1">
          <mxGeometry x="157" y="197.5" width="130" height="35" as="geometry" />
        </mxCell>
        <mxCell id="8VuKFUdI4f5eGSDuHEeQ-11" value="Student Goes To Instructor" style="ellipse;whiteSpace=wrap;html=1;fillColor=#FFE6CC;" parent="1" vertex="1">
          <mxGeometry x="80" y="222.5" width="110" height="40" as="geometry" />
        </mxCell>
        <mxCell id="8VuKFUdI4f5eGSDuHEeQ-12" value="" style="endArrow=block;endSize=16;endFill=0;html=1;rounded=0;strokeColor=#CC0000;" parent="1" source="8VuKFUdI4f5eGSDuHEeQ-10" target="8VuKFUdI4f5eGSDuHEeQ-7" edge="1">
          <mxGeometry width="160" relative="1" as="geometry">
            <mxPoint x="-20" y="355" as="sourcePoint" />
            <mxPoint x="140" y="355" as="targetPoint" />
          </mxGeometry>
        </mxCell>
        <mxCell id="8VuKFUdI4f5eGSDuHEeQ-13" value="" style="endArrow=block;endSize=16;endFill=0;html=1;rounded=0;strokeColor=#CC0000;" parent="1" source="8VuKFUdI4f5eGSDuHEeQ-11" target="8VuKFUdI4f5eGSDuHEeQ-7" edge="1">
          <mxGeometry width="160" relative="1" as="geometry">
            <mxPoint x="182" y="240" as="sourcePoint" />
            <mxPoint x="221" y="286" as="targetPoint" />
          </mxGeometry>
        </mxCell>
        <mxCell id="GeqHjS34vTfnTjAdz5ga-3" value="Student Die" style="ellipse;whiteSpace=wrap;html=1;fillColor=#FFE6CC;" parent="1" vertex="1">
          <mxGeometry x="65" y="137.5" width="85" height="30" as="geometry" />
        </mxCell>
        <mxCell id="GeqHjS34vTfnTjAdz5ga-4" value="&amp;lt;&amp;lt;include&amp;gt;&amp;gt;" style="endArrow=open;endSize=12;dashed=1;html=1;rounded=0;strokeColor=#3399FF;" parent="1" source="8VuKFUdI4f5eGSDuHEeQ-11" target="GeqHjS34vTfnTjAdz5ga-3" edge="1">
          <mxGeometry x="-0.3249" width="160" relative="1" as="geometry">
            <mxPoint x="267.5" y="207.5" as="sourcePoint" />
            <mxPoint x="140" y="140" as="targetPoint" />
            <mxPoint as="offset" />
          </mxGeometry>
        </mxCell>
        <mxCell id="GeqHjS34vTfnTjAdz5ga-5" value="&amp;lt;&amp;lt;include&amp;gt;&amp;gt;" style="endArrow=open;endSize=12;dashed=1;html=1;rounded=0;strokeColor=#3399FF;" parent="1" source="8VuKFUdI4f5eGSDuHEeQ-10" target="GeqHjS34vTfnTjAdz5ga-3" edge="1">
          <mxGeometry x="-0.7882" y="-10" width="160" relative="1" as="geometry">
            <mxPoint x="180" y="99" as="sourcePoint" />
            <mxPoint x="130" y="160" as="targetPoint" />
            <mxPoint y="-1" as="offset" />
          </mxGeometry>
        </mxCell>
        <mxCell id="GeqHjS34vTfnTjAdz5ga-6" style="edgeStyle=orthogonalEdgeStyle;rounded=0;orthogonalLoop=1;jettySize=auto;html=1;exitX=0.5;exitY=1;exitDx=0;exitDy=0;fillColor=#D5E8D4;" parent="1" source="lT9Hb-5_YNJ0qb3hjdj5-63" target="lT9Hb-5_YNJ0qb3hjdj5-63" edge="1">
          <mxGeometry relative="1" as="geometry" />
        </mxCell>
        <mxCell id="MtzeGrgQ0cjP38RyA9aJ-1" value="&lt;b&gt;Student Move&lt;/b&gt;" style="ellipse;whiteSpace=wrap;html=1;fillColor=#FFCCCC;" vertex="1" parent="1">
          <mxGeometry x="370" y="227.5" width="80" height="30" as="geometry" />
        </mxCell>
        <mxCell id="MtzeGrgQ0cjP38RyA9aJ-2" value="" style="endArrow=block;endSize=16;endFill=0;html=1;rounded=0;strokeColor=#CC0000;" edge="1" parent="1" source="MtzeGrgQ0cjP38RyA9aJ-1" target="lT9Hb-5_YNJ0qb3hjdj5-2">
          <mxGeometry width="160" relative="1" as="geometry">
            <mxPoint x="352" y="180" as="sourcePoint" />
            <mxPoint x="366" y="290" as="targetPoint" />
          </mxGeometry>
        </mxCell>
        <mxCell id="MtzeGrgQ0cjP38RyA9aJ-3" value="Instructor Move" style="ellipse;whiteSpace=wrap;html=1;fillColor=#FFCCCC;" vertex="1" parent="1">
          <mxGeometry x="287" y="205" width="80" height="35" as="geometry" />
        </mxCell>
        <mxCell id="MtzeGrgQ0cjP38RyA9aJ-4" value="" style="endArrow=block;endSize=16;endFill=0;html=1;rounded=0;strokeColor=#CC0000;" edge="1" parent="1" source="MtzeGrgQ0cjP38RyA9aJ-3" target="lT9Hb-5_YNJ0qb3hjdj5-2">
          <mxGeometry width="160" relative="1" as="geometry">
            <mxPoint x="367" y="197" as="sourcePoint" />
            <mxPoint x="392" y="231" as="targetPoint" />
          </mxGeometry>
        </mxCell>
        <mxCell id="MtzeGrgQ0cjP38RyA9aJ-7" value="&lt;b&gt;Attack Item Effect&lt;/b&gt;" style="ellipse;whiteSpace=wrap;html=1;fillColor=#E9E6FF;" vertex="1" parent="1">
          <mxGeometry x="157" y="330" width="140" height="30" as="geometry" />
        </mxCell>
        <mxCell id="MtzeGrgQ0cjP38RyA9aJ-8" value="" style="endArrow=none;html=1;rounded=0;strokeColor=#3399FF;" edge="1" parent="1" target="MtzeGrgQ0cjP38RyA9aJ-7" source="lT9Hb-5_YNJ0qb3hjdj5-1">
          <mxGeometry width="50" height="50" relative="1" as="geometry">
            <mxPoint x="-200" y="236.5" as="sourcePoint" />
            <mxPoint x="-210" y="327.5" as="targetPoint" />
          </mxGeometry>
        </mxCell>
        <mxCell id="MtzeGrgQ0cjP38RyA9aJ-11" value="Attack TVSZ Effect" style="ellipse;whiteSpace=wrap;html=1;fillColor=#E9E6FF;" vertex="1" parent="1">
          <mxGeometry x="80" y="277.5" width="110" height="35" as="geometry" />
        </mxCell>
        <mxCell id="MtzeGrgQ0cjP38RyA9aJ-14" value="Attack GlassOfBeer Effect" style="ellipse;whiteSpace=wrap;html=1;fillColor=#E9E6FF;" vertex="1" parent="1">
          <mxGeometry x="15" y="370" width="150" height="35" as="geometry" />
        </mxCell>
        <mxCell id="MtzeGrgQ0cjP38RyA9aJ-15" value="Attack WetRag Effect" style="ellipse;whiteSpace=wrap;html=1;fillColor=#E9E6FF;" vertex="1" parent="1">
          <mxGeometry x="10" y="310" width="100" height="35" as="geometry" />
        </mxCell>
        <mxCell id="MtzeGrgQ0cjP38RyA9aJ-18" value="" style="endArrow=block;endSize=16;endFill=0;html=1;rounded=0;strokeColor=#CC0000;" edge="1" parent="1" source="MtzeGrgQ0cjP38RyA9aJ-11" target="MtzeGrgQ0cjP38RyA9aJ-7">
          <mxGeometry width="160" relative="1" as="geometry">
            <mxPoint x="32" y="312.5" as="sourcePoint" />
            <mxPoint x="-26" y="235.5" as="targetPoint" />
          </mxGeometry>
        </mxCell>
        <mxCell id="MtzeGrgQ0cjP38RyA9aJ-21" value="" style="endArrow=block;endSize=16;endFill=0;html=1;rounded=0;strokeColor=#CC0000;" edge="1" parent="1" source="MtzeGrgQ0cjP38RyA9aJ-14" target="MtzeGrgQ0cjP38RyA9aJ-7">
          <mxGeometry width="160" relative="1" as="geometry">
            <mxPoint x="62" y="342.5" as="sourcePoint" />
            <mxPoint x="4" y="265.5" as="targetPoint" />
          </mxGeometry>
        </mxCell>
        <mxCell id="MtzeGrgQ0cjP38RyA9aJ-22" value="" style="endArrow=block;endSize=16;endFill=0;html=1;rounded=0;strokeColor=#CC0000;" edge="1" parent="1" source="MtzeGrgQ0cjP38RyA9aJ-15" target="MtzeGrgQ0cjP38RyA9aJ-7">
          <mxGeometry width="160" relative="1" as="geometry">
            <mxPoint x="72" y="352.5" as="sourcePoint" />
            <mxPoint x="14" y="275.5" as="targetPoint" />
          </mxGeometry>
        </mxCell>
        <mxCell id="MtzeGrgQ0cjP38RyA9aJ-25" style="edgeStyle=orthogonalEdgeStyle;rounded=0;orthogonalLoop=1;jettySize=auto;html=1;exitX=0.5;exitY=1;exitDx=0;exitDy=0;" edge="1" parent="1">
          <mxGeometry relative="1" as="geometry">
            <mxPoint x="180" y="417.5" as="sourcePoint" />
            <mxPoint x="180" y="417.5" as="targetPoint" />
          </mxGeometry>
        </mxCell>
      </root>
    </mxGraphModel>
  </diagram>
</mxfile>
